<svg xmlns="http://www.w3.org/2000/svg" width="256" height="256" viewBox="0 0 256 256" role="img" aria-label="ro-Control logo">
  <defs>
    <linearGradient id="bg" x1="0" y1="0" x2="1" y2="1">
      <stop offset="0%" stop-color="#0d2a3f"/>
      <stop offset="100%" stop-color="#157f66"/>
    </linearGradient>
    <linearGradient id="accent" x1="0" y1="0" x2="1" y2="1">
      <stop offset="0%" stop-color="#5ff2c9"/>
      <stop offset="100%" stop-color="#9ef8e2"/>
    </linearGradient>
  </defs>

  <rect width="256" height="256" rx="52" fill="url(#bg)"/>

  <!-- Shield: trusted driver control -->
  <path d="M128 48 188 72v52c0 43-25 72-60 86-35-14-60-43-60-86V72z" fill="#eefbf7" opacity="0.95"/>

  <!-- Circuit traces: hardware/system awareness -->
  <path d="M84 132h28m88 0h-28M128 92v24M128 180v-24" fill="none" stroke="#0f4f45" stroke-width="10" stroke-linecap="round"/>
  <circle cx="84" cy="132" r="7" fill="#0f4f45"/>
  <circle cx="172" cy="132" r="7" fill="#0f4f45"/>
  <circle cx="128" cy="92" r="7" fill="#0f4f45"/>
  <circle cx="128" cy="180" r="7" fill="#0f4f45"/>

  <!-- Status arc + needle: live monitoring -->
  <path d="M94 150a40 40 0 0 1 68 0" fill="none" stroke="#0f4f45" stroke-width="10" stroke-linecap="round"/>
  <path d="M128 150l23-15" stroke="url(#accent)" stroke-width="8" stroke-linecap="round"/>
  <circle cx="128" cy="150" r="9" fill="url(#accent)"/>
</svg>
