<svg xmlns="http://www.w3.org/2000/svg" width="256" height="256" viewBox="0 0 256 256" role="img" aria-label="ro-Control icon">
  <defs>
    <linearGradient id="bg" x1="0" y1="0" x2="1" y2="1">
      <stop offset="0%" stop-color="#252C33"/>
      <stop offset="100%" stop-color="#13181D"/>
    </linearGradient>
    <linearGradient id="core" x1="0" y1="0" x2="1" y2="1">
      <stop offset="0%" stop-color="#7CDB55"/>
      <stop offset="100%" stop-color="#57B83D"/>
    </linearGradient>
  </defs>

  <rect width="256" height="256" rx="52" fill="url(#bg)"/>

  <g fill="#313941">
    <rect x="74" y="28" width="12" height="28" rx="4"/>
    <rect x="104" y="28" width="12" height="28" rx="4"/>
    <rect x="140" y="28" width="12" height="28" rx="4"/>
    <rect x="170" y="28" width="12" height="28" rx="4"/>

    <rect x="74" y="200" width="12" height="28" rx="4"/>
    <rect x="104" y="200" width="12" height="28" rx="4"/>
    <rect x="140" y="200" width="12" height="28" rx="4"/>
    <rect x="170" y="200" width="12" height="28" rx="4"/>

    <rect x="28" y="74" width="28" height="12" rx="4"/>
    <rect x="28" y="104" width="28" height="12" rx="4"/>
    <rect x="28" y="140" width="28" height="12" rx="4"/>
    <rect x="28" y="170" width="28" height="12" rx="4"/>

    <rect x="200" y="74" width="28" height="12" rx="4"/>
    <rect x="200" y="104" width="28" height="12" rx="4"/>
    <rect x="200" y="140" width="28" height="12" rx="4"/>
    <rect x="200" y="170" width="28" height="12" rx="4"/>
  </g>

  <rect x="56" y="56" width="144" height="144" rx="32" fill="#1A2026"/>
  <rect x="72" y="72" width="112" height="112" rx="24" fill="#11161B" stroke="#3C454E" stroke-width="4"/>

  <circle cx="128" cy="128" r="38" fill="none" stroke="url(#core)" stroke-width="14"/>
  <path d="M128 92v18" stroke="#EAF5E4" stroke-width="10" stroke-linecap="round"/>
  <path d="M128 146h22" stroke="#EAF5E4" stroke-width="10" stroke-linecap="round"/>
  <circle cx="128" cy="128" r="8" fill="#EAF5E4"/>
</svg>
