<svg xmlns="http://www.w3.org/2000/svg" width="256" height="256" viewBox="0 0 256 256" role="img" aria-label="ro-Control Dial Core concept">
  <defs>
    <linearGradient id="bg" x1="0" y1="0" x2="1" y2="1">
      <stop offset="0%" stop-color="#21282F"/>
      <stop offset="100%" stop-color="#11161B"/>
    </linearGradient>
    <linearGradient id="accent" x1="0" y1="0" x2="1" y2="1">
      <stop offset="0%" stop-color="#86E35E"/>
      <stop offset="100%" stop-color="#54B53D"/>
    </linearGradient>
  </defs>

  <rect width="256" height="256" rx="52" fill="url(#bg)"/>

  <g fill="#364049">
    <rect x="80" y="30" width="10" height="24" rx="4"/>
    <rect x="107" y="30" width="10" height="24" rx="4"/>
    <rect x="139" y="30" width="10" height="24" rx="4"/>
    <rect x="166" y="30" width="10" height="24" rx="4"/>

    <rect x="80" y="202" width="10" height="24" rx="4"/>
    <rect x="107" y="202" width="10" height="24" rx="4"/>
    <rect x="139" y="202" width="10" height="24" rx="4"/>
    <rect x="166" y="202" width="10" height="24" rx="4"/>

    <rect x="30" y="80" width="24" height="10" rx="4"/>
    <rect x="30" y="107" width="24" height="10" rx="4"/>
    <rect x="30" y="139" width="24" height="10" rx="4"/>
    <rect x="30" y="166" width="24" height="10" rx="4"/>

    <rect x="202" y="80" width="24" height="10" rx="4"/>
    <rect x="202" y="107" width="24" height="10" rx="4"/>
    <rect x="202" y="139" width="24" height="10" rx="4"/>
    <rect x="202" y="166" width="24" height="10" rx="4"/>
  </g>

  <rect x="54" y="54" width="148" height="148" rx="34" fill="#171C22"/>
  <rect x="70" y="70" width="116" height="116" rx="28" fill="#10151A" stroke="#424C56" stroke-width="4"/>

  <path d="M91 145a40 40 0 1 1 74 0" fill="none" stroke="url(#accent)" stroke-width="14" stroke-linecap="round"/>
  <path d="M128 127l24-24" stroke="#E8F4E3" stroke-width="10" stroke-linecap="round"/>
  <circle cx="128" cy="127" r="10" fill="#E8F4E3"/>
  <rect x="118" y="152" width="20" height="12" rx="6" fill="#5AC03F"/>
</svg>
